<svg width="25" height="20" viewBox="0 0 25 20" fill="none" xmlns="http://www.w3.org/2000/svg">
<path d="M8.21666 19.75C17.271 19.75 22.2248 12.2467 22.2248 5.74186C22.2248 5.53092 22.2201 5.3153 22.2107 5.10436C23.1744 4.40746 24.006 3.54425 24.6665 2.5553C23.769 2.9546 22.8161 3.21538 21.8404 3.32874C22.8678 2.71291 23.637 1.74547 24.0056 0.605767C23.0391 1.17856 21.9821 1.58261 20.8799 1.80061C20.1373 1.01156 19.1555 0.489116 18.0862 0.314051C17.0169 0.138986 15.9197 0.32105 14.9642 0.832096C14.0088 1.34314 13.2483 2.15471 12.8004 3.14131C12.3524 4.12792 12.2419 5.23462 12.486 6.2903C10.529 6.19209 8.61444 5.6837 6.86649 4.7981C5.11853 3.91249 3.5762 2.66944 2.33947 1.14952C1.7109 2.23324 1.51856 3.51565 1.80153 4.73609C2.08451 5.95654 2.82157 7.02345 3.86291 7.71999C3.08113 7.69517 2.31648 7.48468 1.63213 7.10592V7.16686C1.63143 8.30415 2.0246 9.40659 2.74481 10.2868C3.46503 11.167 4.46783 11.7706 5.58275 11.995C4.85856 12.1931 4.09849 12.222 3.36135 12.0794C3.67596 13.0574 4.28808 13.9129 5.11227 14.5263C5.93647 15.1398 6.93162 15.4806 7.95885 15.5012C6.21493 16.8711 4.06068 17.6141 1.84307 17.6106C1.44979 17.61 1.0569 17.5859 0.666504 17.5384C2.91936 18.9837 5.54004 19.7514 8.21666 19.75Z" fill="white"/>
</svg>
