<svg width="25" height="42" viewBox="0 0 25 42" fill="none" xmlns="http://www.w3.org/2000/svg">
<path d="M23.3789 41.8359H18.457C17.7775 41.8359 17.2266 41.285 17.2266 40.6055V39.0038C14.9176 38.5334 12.708 37.6181 10.7399 36.3165L9.60701 37.4493C9.12647 37.9299 8.34742 37.9299 7.86688 37.4493L4.38662 33.9691C3.90608 33.4886 3.90608 32.7095 4.38662 32.2289L5.51939 31.0961C4.21788 29.1279 3.3025 26.9183 2.83213 24.6094H1.23047C0.550922 24.6094 0 24.0585 0 23.3789V18.457C0 17.7775 0.550922 17.2266 1.23047 17.2266H2.83213C3.3025 14.9176 4.21788 12.708 5.51939 10.7398L4.38654 9.60693C4.15579 9.37617 4.02618 9.06322 4.02618 8.7369C4.02618 8.41058 4.15579 8.09772 4.38654 7.86696L7.86688 4.38662C8.34742 3.90608 9.12647 3.90608 9.60701 4.38662L10.7399 5.51939C12.708 4.21788 14.9176 3.30258 17.2266 2.83213V1.23047C17.2266 0.550922 17.7775 0 18.457 0H23.3789C24.0585 0 24.6094 0.550922 24.6094 1.23047V10.4772C23.4542 10.0675 22.2118 9.84375 20.918 9.84375C14.8116 9.84375 9.84375 14.8116 9.84375 20.918C9.84375 27.0243 14.8116 31.9922 20.918 31.9922C22.2118 31.9922 23.4542 31.7684 24.6094 31.3587V40.6055C24.6094 41.285 24.0585 41.8359 23.3789 41.8359Z" fill="#1E1B1B"/>
</svg>
